<svg width="100" height="100" viewBox="0 0 100 100" fill="none" xmlns="http://www.w3.org/2000/svg">
<g filter="url(#filter0_d_90_11)">
<path d="M28.6966 28.3838C28.7285 28.001 28.8242 27.6501 28.9837 27.3311C29.1432 27.012 29.3346 26.7728 29.5579 26.6133C29.8131 26.4219 30.0683 26.3421 30.3235 26.374C30.5787 26.374 30.834 26.5176 31.0892 26.8047C31.2168 26.8047 31.3125 26.9323 31.3763 27.1875C31.472 27.4108 31.5358 27.8415 31.5677 28.4795C31.5996 29.0856 31.6155 29.931 31.6155 31.0156C31.6474 32.1003 31.6634 33.488 31.6634 35.1787C31.6634 36.8695 31.6634 38.9111 31.6634 41.3037C31.6953 43.6644 31.7272 46.4398 31.7591 49.6299C31.8867 49.4066 32.2216 48.8483 32.764 47.9551C33.3382 47.0299 34.056 45.9134 34.9173 44.6055C35.7786 43.2656 36.7356 41.8301 37.7884 40.2988C38.873 38.7357 39.9736 37.1885 41.0901 35.6572C42.2386 34.126 43.3711 32.6904 44.4876 31.3506C45.636 30.0107 46.6888 28.9261 47.6458 28.0967C48.6028 27.2354 49.4482 26.693 50.1819 26.4697C50.9476 26.2145 51.5058 26.4219 51.8567 27.0918C49.0813 30.6647 46.625 33.7751 44.4876 36.4229C42.3502 39.0706 40.5 41.4632 38.9368 43.6006C37.4056 45.7061 36.1136 47.652 35.0608 49.4385C34.04 51.2249 33.2265 53.0433 32.6204 54.8936L52.6702 64.5596C52.6064 65.1019 52.415 65.6123 52.096 66.0908C51.8089 66.5693 51.3144 66.7767 50.6126 66.7129L31.9983 58.0518C32.094 58.5622 32.1259 59.1842 32.094 59.918C32.094 60.6198 32.0621 61.3535 31.9983 62.1191C31.9664 62.8848 31.9026 63.6185 31.8069 64.3203C31.7112 65.0221 31.6474 65.5964 31.6155 66.043C31.6793 66.7129 31.4401 67.1595 30.8978 67.3828C30.3873 67.6061 29.8769 67.4945 29.3665 67.0479L28.6966 28.3838ZM71.6237 44.7012C71.3685 44.8607 70.906 45.084 70.236 45.3711C69.5661 45.6263 68.7845 45.9134 67.8913 46.2324C67.03 46.5514 66.1049 46.8864 65.1159 47.2373C64.1589 47.5882 63.2338 47.9391 62.3405 48.29C61.4792 48.609 60.6976 48.9121 59.9958 49.1992C59.3259 49.4544 58.8633 49.6777 58.6081 49.8691C58.0339 50.2839 57.6032 50.874 57.3161 51.6396C57.029 52.3734 56.8217 53.2188 56.694 54.1758C56.5664 55.1009 56.5026 56.1058 56.5026 57.1904C56.5026 58.2432 56.5345 59.2799 56.5983 60.3008C56.6621 61.3216 56.7259 62.2946 56.7897 63.2197C56.8855 64.1449 56.9493 64.9264 56.9812 65.5645C56.9493 66.0749 56.7578 66.5374 56.4069 66.9521C56.0879 67.335 55.6732 67.5264 55.1628 67.5264C54.9714 67.5264 54.7481 67.4785 54.4929 67.3828C54.2377 67.2871 54.126 67.1117 54.1579 66.8564L54.0144 27.7617C54.0144 27.3151 54.1101 26.9961 54.3015 26.8047C54.4929 26.5814 54.7321 26.4697 55.0192 26.4697C55.3064 26.4378 55.6094 26.4857 55.9284 26.6133C56.2474 26.7409 56.5345 26.9004 56.7897 27.0918C56.8217 28.4954 56.8376 30.1064 56.8376 31.9248C56.8376 33.7432 56.8376 35.5775 56.8376 37.4277C56.8695 39.278 56.9174 41.0645 56.9812 42.7871C57.0769 44.5098 57.2364 45.9772 57.4597 47.1895C59.0228 46.5195 60.6179 45.9613 62.2448 45.5146C63.8718 45.0361 65.3392 44.4938 66.6472 43.8877C67.987 43.2497 69.0876 42.4521 69.9489 41.4951C70.8103 40.5062 71.2888 39.1823 71.3845 37.5234C71.4483 36.6621 71.4802 35.8965 71.4802 35.2266C71.4802 34.5566 71.4483 33.8867 71.3845 33.2168C71.3526 32.5469 71.2569 31.8451 71.0974 31.1113C70.9698 30.3457 70.7943 29.4525 70.571 28.4316C70.571 27.7936 70.6986 27.3949 70.9538 27.2354C71.2409 27.0439 71.5918 26.9482 72.0065 26.9482C72.4532 26.9482 72.7881 27.0599 73.0114 27.2832C73.2666 27.5065 73.4421 27.7936 73.5378 28.1445C73.6654 28.4635 73.7452 28.8304 73.7771 29.2451C73.809 29.6598 73.8249 30.0426 73.8249 30.3936C73.8568 30.9359 73.8887 31.7812 73.9206 32.9297C73.9525 34.0781 73.9844 35.3701 74.0163 36.8057C74.0482 38.2093 74.0801 39.7087 74.112 41.3037C74.1758 42.8988 74.2237 44.4141 74.2556 45.8496C74.2875 47.2533 74.3194 48.5293 74.3513 49.6777C74.3832 50.8262 74.3991 51.6715 74.3991 52.2139C74.431 52.8838 74.447 53.777 74.447 54.8936C74.447 56.0101 74.447 57.1745 74.447 58.3867C74.447 59.599 74.431 60.7793 74.3991 61.9277C74.3672 63.0443 74.3353 63.9375 74.3034 64.6074C74.2715 64.8945 74.2396 65.1816 74.2077 65.4688C74.2077 65.7559 74.1599 66.027 74.0642 66.2822C74.0004 66.5374 73.8568 66.7607 73.6335 66.9521C73.4421 67.1436 73.139 67.2871 72.7243 67.3828C72.0863 66.9681 71.7354 66.4736 71.6716 65.8994C71.6397 65.3252 71.6078 64.7031 71.5759 64.0332C71.5759 63.6504 71.5759 62.9645 71.5759 61.9756C71.6078 60.9548 71.6237 59.7904 71.6237 58.4824C71.6237 57.1745 71.6237 55.8027 71.6237 54.3672C71.6556 52.8997 71.6716 51.528 71.6716 50.252C71.6716 48.944 71.6716 47.7956 71.6716 46.8066C71.6716 45.7858 71.6556 45.084 71.6237 44.7012Z" fill="#1F3D27"/>
<path d="M83.9718 37.6246C81.5678 37.8165 80.9781 39.8382 79.2127 40.1893C77.8839 40.4535 76.4886 39.5455 75.7161 38.9288C75.7161 38.9288 74.8949 39.3061 74.1674 39.9465C73.9237 40.1615 73.4056 39.6302 73.6011 39.4441C76.0773 37.0885 81.3729 37.4331 81.3729 37.4331C81.3729 37.4331 78.0582 36.063 74.939 37.562C75.0788 37.0052 75.5203 35.5226 77.5896 35.2866C80.3954 34.9653 84.5329 37.5801 83.9718 37.6246V37.6246Z" fill="#1F3D27"/>
</g>
<defs>
<filter id="filter0_d_90_11" x="-4" y="25" width="108" height="58" filterUnits="userSpaceOnUse" color-interpolation-filters="sRGB">
<feFlood flood-opacity="0" result="BackgroundImageFix"/>
<feColorMatrix in="SourceAlpha" type="matrix" values="0 0 0 0 0 0 0 0 0 0 0 0 0 0 0 0 0 0 127 0" result="hardAlpha"/>
<feOffset dy="4"/>
<feGaussianBlur stdDeviation="2"/>
<feComposite in2="hardAlpha" operator="out"/>
<feColorMatrix type="matrix" values="0 0 0 0 0 0 0 0 0 0 0 0 0 0 0 0 0 0 0.25 0"/>
<feBlend mode="normal" in2="BackgroundImageFix" result="effect1_dropShadow_90_11"/>
<feBlend mode="normal" in="SourceGraphic" in2="effect1_dropShadow_90_11" result="shape"/>
</filter>
</defs>
</svg>
