<svg width="100" height="50" viewBox="0 0 100 50" fill="none" xmlns="http://www.w3.org/2000/svg">
<rect width="100" height="50" fill="#0B120C"/>
<path d="M28.6966 3.38379C28.7285 3.00098 28.8242 2.65007 28.9837 2.33105C29.1432 2.01204 29.3346 1.77279 29.5579 1.61328C29.8131 1.42188 30.0683 1.34212 30.3235 1.37402C30.5787 1.37402 30.834 1.51758 31.0892 1.80469C31.2168 1.80469 31.3125 1.93229 31.3763 2.1875C31.472 2.41081 31.5358 2.84147 31.5677 3.47949C31.5996 4.08561 31.6155 4.93099 31.6155 6.01562C31.6474 7.10026 31.6634 8.48796 31.6634 10.1787C31.6634 11.8695 31.6634 13.9111 31.6634 16.3037C31.6953 18.6644 31.7272 21.4398 31.7591 24.6299C31.8867 24.4066 32.2216 23.8483 32.764 22.9551C33.3382 22.0299 34.056 20.9134 34.9173 19.6055C35.7786 18.2656 36.7356 16.8301 37.7884 15.2988C38.873 13.7357 39.9736 12.1885 41.0901 10.6572C42.2386 9.12598 43.3711 7.69043 44.4876 6.35059C45.636 5.01074 46.6888 3.92611 47.6458 3.09668C48.6028 2.23535 49.4482 1.69303 50.1819 1.46973C50.9476 1.21452 51.5058 1.42188 51.8567 2.0918C49.0813 5.66471 46.625 8.77507 44.4876 11.4229C42.3502 14.0706 40.5 16.4632 38.9368 18.6006C37.4056 20.7061 36.1136 22.652 35.0608 24.4385C34.04 26.2249 33.2265 28.0433 32.6204 29.8936L52.6702 39.5596C52.6064 40.1019 52.415 40.6123 52.096 41.0908C51.8089 41.5693 51.3144 41.7767 50.6126 41.7129L31.9983 33.0518C32.094 33.5622 32.1259 34.1842 32.094 34.918C32.094 35.6198 32.0621 36.3535 31.9983 37.1191C31.9664 37.8848 31.9026 38.6185 31.8069 39.3203C31.7112 40.0221 31.6474 40.5964 31.6155 41.043C31.6793 41.7129 31.4401 42.1595 30.8978 42.3828C30.3873 42.6061 29.8769 42.4945 29.3665 42.0479L28.6966 3.38379ZM71.6237 19.7012C71.3685 19.8607 70.906 20.084 70.236 20.3711C69.5661 20.6263 68.7845 20.9134 67.8913 21.2324C67.03 21.5514 66.1049 21.8864 65.1159 22.2373C64.1589 22.5882 63.2338 22.9391 62.3405 23.29C61.4792 23.609 60.6976 23.9121 59.9958 24.1992C59.3259 24.4544 58.8633 24.6777 58.6081 24.8691C58.0339 25.2839 57.6032 25.874 57.3161 26.6396C57.029 27.3734 56.8217 28.2188 56.694 29.1758C56.5664 30.1009 56.5026 31.1058 56.5026 32.1904C56.5026 33.2432 56.5345 34.2799 56.5983 35.3008C56.6621 36.3216 56.7259 37.2946 56.7897 38.2197C56.8855 39.1449 56.9493 39.9264 56.9812 40.5645C56.9493 41.0749 56.7578 41.5374 56.4069 41.9521C56.0879 42.335 55.6732 42.5264 55.1628 42.5264C54.9714 42.5264 54.7481 42.4785 54.4929 42.3828C54.2377 42.2871 54.126 42.1117 54.1579 41.8564L54.0144 2.76172C54.0144 2.3151 54.1101 1.99609 54.3015 1.80469C54.4929 1.58138 54.7321 1.46973 55.0192 1.46973C55.3064 1.43783 55.6094 1.48568 55.9284 1.61328C56.2474 1.74089 56.5345 1.90039 56.7897 2.0918C56.8217 3.49544 56.8376 5.10645 56.8376 6.9248C56.8376 8.74316 56.8376 10.5775 56.8376 12.4277C56.8695 14.278 56.9174 16.0645 56.9812 17.7871C57.0769 19.5098 57.2364 20.9772 57.4597 22.1895C59.0228 21.5195 60.6179 20.9613 62.2448 20.5146C63.8718 20.0361 65.3392 19.4938 66.6472 18.8877C67.987 18.2497 69.0876 17.4521 69.9489 16.4951C70.8103 15.5062 71.2888 14.1823 71.3845 12.5234C71.4483 11.6621 71.4802 10.8965 71.4802 10.2266C71.4802 9.55664 71.4483 8.88672 71.3845 8.2168C71.3526 7.54688 71.2569 6.84505 71.0974 6.11133C70.9698 5.3457 70.7943 4.45247 70.571 3.43164C70.571 2.79362 70.6986 2.39486 70.9538 2.23535C71.2409 2.04395 71.5918 1.94824 72.0065 1.94824C72.4532 1.94824 72.7881 2.0599 73.0114 2.2832C73.2666 2.50651 73.4421 2.79362 73.5378 3.14453C73.6654 3.46354 73.7452 3.8304 73.7771 4.24512C73.809 4.65983 73.8249 5.04264 73.8249 5.39355C73.8568 5.93587 73.8887 6.78125 73.9206 7.92969C73.9525 9.07812 73.9844 10.3701 74.0163 11.8057C74.0482 13.2093 74.0801 14.7087 74.112 16.3037C74.1758 17.8988 74.2237 19.4141 74.2556 20.8496C74.2875 22.2533 74.3194 23.5293 74.3513 24.6777C74.3832 25.8262 74.3991 26.6715 74.3991 27.2139C74.431 27.8838 74.447 28.777 74.447 29.8936C74.447 31.0101 74.447 32.1745 74.447 33.3867C74.447 34.599 74.431 35.7793 74.3991 36.9277C74.3672 38.0443 74.3353 38.9375 74.3034 39.6074C74.2715 39.8945 74.2396 40.1816 74.2077 40.4688C74.2077 40.7559 74.1599 41.027 74.0642 41.2822C74.0004 41.5374 73.8568 41.7607 73.6335 41.9521C73.4421 42.1436 73.139 42.2871 72.7243 42.3828C72.0863 41.9681 71.7354 41.4736 71.6716 40.8994C71.6397 40.3252 71.6078 39.7031 71.5759 39.0332C71.5759 38.6504 71.5759 37.9645 71.5759 36.9756C71.6078 35.9548 71.6237 34.7904 71.6237 33.4824C71.6237 32.1745 71.6237 30.8027 71.6237 29.3672C71.6556 27.8997 71.6716 26.528 71.6716 25.252C71.6716 23.944 71.6716 22.7956 71.6716 21.8066C71.6716 20.7858 71.6556 20.084 71.6237 19.7012Z" fill="#99A393"/>
<path d="M81.9221 11.521C80.0577 12.067 79.9233 13.7599 78.5885 14.3267C77.5839 14.7533 76.3349 14.2654 75.6249 13.9052C75.6249 13.9052 75.039 14.3378 74.57 14.9628C74.413 15.1726 73.9175 14.8381 74.0413 14.6591C75.6087 12.393 79.8413 11.7962 79.8413 11.7962C79.8413 11.7962 77.0031 11.2583 74.7885 12.9536C74.8077 12.4911 74.9133 11.2481 76.5066 10.7223C78.6667 10.0083 82.3574 11.3938 81.9221 11.521Z" fill="#99A393"/>
</svg>
